<?xml version="1.0" encoding="UTF-8"?>
<svg width="142px" height="195px" viewBox="0 0 142 195" version="1.1" xmlns="http://www.w3.org/2000/svg" xmlns:xlink="http://www.w3.org/1999/xlink">
    <title>红包/1</title>
    <defs>
        <linearGradient x1="74.913133%" y1="86.9073597%" x2="25.0829803%" y2="13.0952995%" id="linearGradient-1">
            <stop stop-color="#F23924" offset="0%"></stop>
            <stop stop-color="#F94B32" offset="100%"></stop>
        </linearGradient>
        <linearGradient x1="49.9988014%" y1="100%" x2="49.9988014%" y2="0.00360246769%" id="linearGradient-2">
            <stop stop-color="#E22E15" offset="0%"></stop>
            <stop stop-color="#F43D25" offset="100%"></stop>
        </linearGradient>
        <linearGradient x1="91.9549872%" y1="100%" x2="8.04501279%" y2="0%" id="linearGradient-3">
            <stop stop-color="#FEF25A" offset="0%"></stop>
            <stop stop-color="#FFF578" offset="100%"></stop>
        </linearGradient>
        <linearGradient x1="90.9213269%" y1="97.597506%" x2="9.0461267%" y2="2.38313283%" id="linearGradient-4">
            <stop stop-color="#FD9425" offset="0%"></stop>
            <stop stop-color="#FFA03B" offset="100%"></stop>
        </linearGradient>
    </defs>
    <g id="红包/1" stroke="none" stroke-width="1" fill="none" fill-rule="evenodd">
        <g>
            <path d="M70.9994481,0 C89.8298189,0 107.889005,7.46110213 121.204191,20.742355 C134.519378,34.0236078 142,52.0369343 142,70.8196083 L142,172.979662 C142,185.141159 132.116123,195 119.923744,195 L22.0762564,195 C9.88387664,195 0,185.141159 0,172.979662 L0,70.8196083 C0,31.7070186 31.7875357,0 70.9994481,0 L70.9994481,0 Z" id="圆角矩形_1829" fill="#C6361A"></path>
            <g id="人民币_拷贝" transform="translate(10.000000, 9.000000)">
                <polygon id="矩形_1840" fill="#FAAFB0" points="0.424515837 0.231618123 121.735023 0.231618123 121.735023 169.724919 0.424515837 169.724919"></polygon>
                <polygon id="矩形_1840_拷贝" fill="#FFD7D7" points="7.33159276 7.11469256 115.259638 7.11469256 115.259638 162.413819 7.33159276 162.413819"></polygon>
                <polygon id="矩形_1840_拷贝_2" fill="#FEC0C1" points="63.8854932 15.2884466 105.761855 15.2884466 105.761855 153.810388 63.8854932 153.810388"></polygon>
                <text id="_100" fill="#FAAFB0" transform="translate(36.303557, 43.228964) rotate(90.000000) translate(-36.303557, -43.228964) " font-family="Helvetica" font-size="33.333" font-weight="normal">
                    <tspan x="6.36332127" y="54.3715858">100</tspan>
                </text>
            </g>
            <path d="M0,73 L142,73 L142,173.024947 C142,185.161434 132.116123,195 119.923744,195 L22.0762564,195 C9.88387664,195 0,185.161434 0,173.024947 L0,73 L0,73 Z" id="圆角矩形_1829_拷贝" fill="url(#linearGradient-1)"></path>
            <path d="M127.772468,73 C127.772468,73 136.909759,147.385554 104.919316,173.091422 C77.9672854,194.746738 4,185.111226 4,185.111226 C4,185.111226 5.55210439,188.811825 10.0650616,191.703742 C12.2261226,193.065527 14.5390948,194.171741 16.957177,195 L127.341298,195 C127.341298,195 133.351222,193.623263 137.258225,189.845202 C140.645837,186.570919 142,180.823893 142,180.823893 L142,73 L127.772468,73 Z" id="形状_1846" fill="url(#linearGradient-2)"></path>
            <g id="组_13" transform="translate(44.000000, 46.000000)">
                <circle id="椭圆_2_拷贝" fill="url(#linearGradient-3)" fill-rule="nonzero" cx="27.0850909" cy="27.0169091" r="26.6590909"></circle>
                <circle id="椭圆_2_拷贝_5" fill="#FD6725" fill-rule="nonzero" cx="27.0856364" cy="27.0256364" r="20.4376364"></circle>
                <path d="M43.344,14.6372727 C49.5910909,22.8343636 47.3749091,35.0236364 38.394,41.8630909 C29.4130909,48.7025455 17.0667273,47.6023636 10.8212727,39.4052727 C4.57581818,31.2081818 6.79090909,19.0183636 15.7718182,12.1789091 C24.7527273,5.33945455 37.0974545,6.44018182 43.344,14.6372727 Z" id="椭圆_2_拷贝_4" fill="url(#linearGradient-4)"></path>
                <path d="M32.0233636,16.3602019 C32.3607266,16.3602019 32.6841608,16.4947381 32.922,16.734 C33.4193618,17.2345488 33.4193618,18.0427239 32.922,18.5432727 L28.0311816,23.4612019 L33.3654545,23.4621818 C33.8173239,23.4621818 34.1836364,23.8284943 34.1836364,24.2803636 L34.1836364,25.3090909 C34.1836364,25.7609602 33.8173239,26.1272727 33.3654545,26.1272727 L27.9711816,26.1272019 L27.9711816,28.8072019 L33.3654545,28.8076364 C33.8173239,28.8076364 34.1836364,29.1739488 34.1836364,29.6258182 L34.1836364,30.642 C34.1836364,31.0938693 33.8173239,31.4601818 33.3654545,31.4601818 L27.9711816,31.4592019 L27.972,36.8656364 C27.972,37.3175057 27.6056875,37.6838182 27.1538182,37.6838182 L26.124,37.6838182 C25.6721307,37.6838182 25.3058182,37.3175057 25.3058182,36.8656364 L25.3051816,31.4592019 L19.9123636,31.4601818 C19.4604943,31.4601818 19.0941816,31.0938693 19.0941816,30.642 L19.0941816,29.6258182 C19.0941816,29.4087284 19.1801742,29.2004805 19.3336288,29.0469236 C19.4870833,28.8933668 19.6952738,28.8070909 19.9123636,28.8070909 L19.9123636,28.8076364 L25.3051816,28.8072019 L25.3051816,26.1272019 L19.9123636,26.1272727 C19.4604943,26.1272727 19.0941818,25.7609602 19.0941818,25.3090909 L19.0941818,24.2798182 C19.0944829,23.8281619 19.4607072,23.4621818 19.9123636,23.4621818 L25.2191816,23.4612019 L20.328,18.5454545 C19.8312333,18.0446605 19.8312333,17.2369759 20.328,16.7361818 C20.5656124,16.4961276 20.8892347,16.3608783 21.2270002,16.3604667 C21.5647657,16.3600589 21.8887151,16.4945229 22.1269091,16.734 L26.6251816,21.2552019 L31.1247273,16.734 C31.3625665,16.4947381 31.6860007,16.3602019 32.0233636,16.3602019 Z" id="圆角矩形_2_拷贝_9" fill="#FD5D25"></path>
            </g>
        </g>
    </g>
</svg>